<svg width="71" height="74" viewBox="0 0 71 74" fill="none" xmlns="http://www.w3.org/2000/svg">
<path d="M68.6541 36.9125C66.4998 40.1779 64.0245 43.2066 61.6481 46.3073C59.3974 49.2433 57.0686 52.1158 54.5287 54.8089C54.0978 55.2653 53.6462 55.7033 53.2263 56.1707C52.9847 56.4392 52.8431 56.4587 52.6625 56.1109C51.6616 54.1792 50.2397 52.5746 48.57 51.1713C47.834 50.5526 47.0418 49.9986 46.1923 49.5471C45.8506 49.3653 45.7871 49.2384 46.0727 48.9553C49.3169 45.7448 52.4293 42.4049 55.7541 39.2749C58.5662 36.6282 61.5847 34.2438 64.8508 32.1791C66.0165 31.4421 67.2468 30.8258 68.6138 30.5061H68.7041C69.733 30.7673 70.3836 31.4042 70.6667 32.4097C70.4019 34.1071 69.5609 35.5348 68.6528 36.9113L68.6541 36.9125ZM27.95 73.5765C29.6832 73.5582 31.4176 73.568 33.1508 73.568C33.2313 73.5497 33.3119 73.5204 33.3937 73.5131C35.8018 73.3142 38.1379 72.8187 40.3471 71.812C41.5909 71.2446 42.7455 70.5368 43.5767 69.4203C44.8253 67.7412 45.1866 65.8352 44.9169 63.79C44.4042 59.9059 41.3577 57.2787 37.4935 57.1408C35.6529 57.0749 33.9991 57.6728 32.593 58.8711C30.9562 60.2659 30.0421 62.0438 29.8553 64.1939C29.7479 65.4301 29.7601 66.6711 29.6283 67.9072C29.4184 69.8657 28.8532 71.668 27.6205 73.2312C27.5607 73.5106 27.6608 73.5778 27.9513 73.5753L27.95 73.5765ZM50.8353 57.8534C49.45 54.9675 47.2664 52.865 44.4762 51.3494C44.1247 51.1591 43.905 51.1627 43.6231 51.4763C42.6235 52.5868 41.5933 53.6679 40.5754 54.7601C40.2141 55.1481 40.2239 55.1603 40.7682 55.3373C41.4212 55.5508 42.051 55.8315 42.6344 56.1939C44.7509 57.5142 46.146 59.3239 46.8673 61.5862C46.9808 61.9413 47.1236 61.9584 47.3812 61.7144C48.5187 60.6417 49.6636 59.5765 50.8036 58.5075C50.8927 58.4245 51.0025 58.3464 50.983 58.1707C50.9403 58.0792 50.8902 57.9645 50.8353 57.851V57.8534ZM34.3433 10.8672C36.9101 10.8587 38.747 8.39983 37.9707 5.94955C37.3446 3.97394 36.2668 2.21432 35.15 0.486428C34.7302 -0.162753 33.8795 -0.161532 33.4425 0.486428C32.3037 2.17649 31.2699 3.93123 30.6426 5.88121C29.8394 8.37909 31.7105 10.8745 34.3433 10.8648V10.8672ZM42.8468 28.7624C42.8444 29.2541 43.0372 29.4494 43.5315 29.4469C45.731 29.4347 47.9304 29.4311 50.1298 29.4469C50.6766 29.4506 50.828 29.2126 50.817 28.705C50.7926 27.5287 50.8084 26.3523 50.8084 25.176C50.8084 24.09 50.8145 23.0039 50.8036 21.9179C50.8011 21.6263 50.7816 21.3273 50.712 21.0454C50.2397 19.1223 48.4235 17.8105 46.5219 18.0033C44.4567 18.2132 42.9139 19.8386 42.8663 21.974C42.8151 24.2352 42.8602 26.4988 42.8468 28.7611V28.7624ZM55.8603 56.0658C55.6821 56.2549 55.5014 56.4404 55.3196 56.6259C55.0608 56.8919 54.8155 57.142 54.5873 57.3958C54.1051 57.9315 53.5474 58.2037 52.9298 58.2037C52.8968 58.2037 52.8565 58.2024 52.815 58.2C52.8162 58.3806 52.7955 58.5819 52.7357 58.7918C55.7456 58.7918 58.7554 58.7918 61.7653 58.7918C62.4325 58.7918 62.767 58.4522 62.7686 57.7729C62.7686 54.466 62.7625 51.1591 62.7698 47.8522C60.1786 51.2128 58.0329 53.7631 55.8591 56.067L55.8603 56.0658ZM45.2513 15.0539C46.6976 15.7043 48.1123 15.5213 49.3267 14.506C50.5387 13.4932 51.0147 12.1546 50.568 10.611C49.9834 8.59264 48.9227 6.79519 47.74 5.07584C47.2152 4.31317 46.4242 4.36808 45.9116 5.12953C45.2415 6.12526 44.6361 7.16127 44.1113 8.23998C43.5877 9.31503 43.0458 10.3913 42.9652 11.6396C43.0946 13.1881 43.7952 14.3999 45.2513 15.0539ZM19.3549 14.5768C20.5779 15.5372 21.9718 15.6921 23.384 15.0381C24.8315 14.3669 25.5175 13.1479 25.6164 11.5823C25.6164 11.5371 25.6237 11.4908 25.6164 11.4468C25.1318 8.97092 23.8844 6.85498 22.4149 4.86229C22.0426 4.3571 21.3066 4.41812 20.9441 4.94649C19.7004 6.76102 18.5445 8.63901 17.9867 10.7867C17.5925 12.3047 18.1344 13.6177 19.3562 14.5768H19.3549ZM31.0991 29.4506C33.2301 29.4274 35.3612 29.4225 37.4911 29.453C38.1379 29.4616 38.3003 29.2017 38.2905 28.6062C38.2637 26.7294 38.2808 24.8514 38.2795 22.9747C38.2795 21.143 38.2942 19.3102 38.2746 17.4786C38.2515 15.2553 36.4817 13.4969 34.3005 13.4969C32.1182 13.4969 30.3325 15.2553 30.3216 17.4725C30.302 21.2041 30.3252 24.9368 30.3057 28.6684C30.302 29.2663 30.5156 29.4579 31.0991 29.4518V29.4506ZM27.9281 65.7961C27.9525 65.225 27.9781 64.6357 28.0294 64.0353C28.1319 62.8504 28.4199 61.7546 28.885 60.7491C20.1471 60.7491 11.4104 60.7491 2.67251 60.7491C2.42352 60.7491 2.1733 60.7394 1.92431 60.7564C1.10655 60.8114 0.635415 61.3092 0.668369 62.1317C0.707427 63.0981 0.989373 64.0023 1.50933 64.8211C2.78724 66.8346 4.6974 67.5814 7.00545 67.5802C13.943 67.5777 20.8806 67.5777 27.8182 67.5765C27.8744 67.0005 27.9012 66.4136 27.9281 65.7949V65.7961ZM66.1324 60.7503C61.1172 60.7503 56.102 60.7503 51.088 60.7503C50.983 60.848 50.8792 60.9456 50.7743 61.0432C50.0615 61.7095 49.3475 62.3769 48.6371 63.0469C48.1708 63.4862 47.6546 63.7095 47.1004 63.7095C46.9857 63.7095 46.8649 63.6973 46.744 63.6753C46.9125 65.064 46.8258 66.3672 46.4889 67.5777C51.5566 67.5777 56.6244 67.5777 61.6908 67.5777C61.8495 67.5777 62.0082 67.5802 62.1669 67.5741C65.1535 67.4606 67.4726 65.5716 67.94 62.8748C68.2134 61.2958 67.7509 60.7503 66.1312 60.7503H66.1324ZM18.4835 29.4482C20.6817 29.4323 22.8799 29.4335 25.0781 29.4469C25.5822 29.4494 25.7567 29.2322 25.7506 28.7502C25.7335 27.6202 25.7457 26.489 25.7457 25.0943C25.6713 23.9619 25.9068 22.55 25.6188 21.1638C25.216 19.2199 23.2827 17.802 21.3713 18.0057C19.3098 18.2266 17.8036 19.8703 17.7926 21.9399C17.7804 24.201 17.8012 26.4622 17.7804 28.7233C17.7756 29.2468 17.955 29.4506 18.4847 29.4469L18.4835 29.4482ZM6.54897 41.2896C7.74632 40.7685 9.00837 40.5172 10.3095 40.461C12.0158 40.3866 13.633 40.7514 15.199 41.4238C17.3398 42.3439 19.5344 42.4379 21.6703 41.4921C24.7717 40.1194 27.8255 40.0437 30.9392 41.4226C33.1667 42.4098 35.4308 42.3732 37.6656 41.3933C40.6767 40.073 43.6841 40.0669 46.6867 41.4019C47.8498 41.9192 49.0411 42.1377 50.258 42.112C51.6421 40.71 53.0555 39.3018 54.5006 37.9424C56.1654 36.3768 57.8852 34.9174 59.644 33.5763C58.0097 32.1645 55.8786 31.3396 53.6804 31.3774C47.2444 31.4848 40.8061 31.4055 34.3677 31.4055C27.9073 31.4055 21.447 31.4067 14.9866 31.4042C14.1469 31.4042 13.3145 31.4335 12.4943 31.6556C8.31388 32.7892 5.65064 36.5818 5.94724 40.9613C5.98141 41.4751 6.18646 41.4482 6.54897 41.2908V41.2896ZM5.82762 57.8229C5.82762 58.7869 5.83128 58.7894 6.81504 58.7894C14.5826 58.7894 22.3489 58.7894 30.1165 58.7894C30.4961 58.3245 30.9245 57.8864 31.4054 57.4776C33.0739 56.056 35.0841 55.3055 37.2213 55.3055C37.3324 55.3055 37.4447 55.308 37.5582 55.3116C37.8829 55.3226 38.2039 55.3507 38.5188 55.3909C38.3674 54.4452 38.9691 53.7985 39.2364 53.513C39.522 53.2067 39.8089 52.9004 40.0957 52.5941C40.8134 51.829 41.5555 51.0383 42.2622 50.2524C42.8993 49.5447 43.5938 49.3921 44.0674 49.3909C44.0332 48.9248 44.1491 48.2854 44.785 47.6557C46.0129 46.4403 47.2469 45.181 48.4406 43.9632C48.4479 43.9559 48.4552 43.9473 48.4638 43.94C47.5032 43.785 46.5402 43.4958 45.5699 43.0761C43.2789 42.084 40.922 42.1169 38.6347 43.1261C35.7042 44.4196 32.8066 44.4098 29.8797 43.1322C27.5619 42.1206 25.1916 42.0791 22.8835 43.098C19.8773 44.4257 16.9419 44.3732 13.9345 43.0956C11.4531 42.0413 8.951 42.1169 6.50991 43.3482C5.99972 43.6056 5.81298 43.9461 5.81664 44.5221C5.83861 48.9553 5.82762 53.3897 5.82884 57.8229H5.82762Z" fill="#CDBB6D"/>
</svg>
