<svg width="63" height="70" viewBox="0 0 63 70" fill="none" xmlns="http://www.w3.org/2000/svg">
<path d="M31.6178 0C33.2609 0.414051 34.7358 1.12002 35.9067 2.38899C37.0777 3.65646 37.7197 5.15777 37.9268 6.85269C38.0296 7.69718 37.8493 7.82676 37.0225 7.59292C32.534 6.32843 28.0424 6.33736 23.5493 7.57505C22.6242 7.82973 22.4574 7.68675 22.584 6.72014C22.9996 3.53582 25.1925 1.03215 28.3016 0.189153C28.4982 0.135535 28.6904 0.0640439 28.8841 0C29.7958 0 30.706 0 31.6178 0ZM53.7895 61.2721C54.2439 61.2721 54.7102 61.2855 55.1497 61.1932C57.4424 60.7091 59.0245 59.3657 59.6338 57.0944C60.2505 54.7977 59.5533 52.8183 57.7761 51.247C55.902 49.5893 54.4748 47.6218 53.4856 45.3252C52.4384 42.89 52.1523 40.3313 52.1702 37.7144C52.1761 36.8699 52.0436 36.7671 51.2004 36.9101C49.3605 37.2199 47.5311 37.1588 45.7092 36.7731C38.6955 35.2882 33.0092 28.7721 33.6796 20.573C33.9835 16.8569 35.357 13.6622 38.0505 11.0587C38.6315 10.4957 38.6002 10.314 37.8538 10.0266C35.3391 9.057 32.7172 8.58337 30.0357 8.63103C25.7258 8.70848 21.708 9.89106 18.1446 12.3426C11.8445 16.6767 8.48361 22.6596 8.34209 30.3553C8.29144 33.133 8.35699 35.9122 8.3257 38.6899C8.30038 40.9598 7.93986 43.173 7.04155 45.2805C6.05087 47.6025 4.61327 49.5908 2.71833 51.2619C1.00662 52.7721 0.306437 54.6771 0.817418 56.9141C1.42523 59.5727 3.64047 61.2736 6.36819 61.2751C14.2951 61.2795 22.2205 61.2766 30.1474 61.2766C38.0281 61.2766 45.9088 61.2766 53.7895 61.2736V61.2721ZM62.0129 21.9507C62.0248 14.5782 56.2089 8.7055 48.8898 8.69954C41.5543 8.69358 35.6818 14.5067 35.6713 21.7853C35.6609 29.1534 41.4828 35.0275 48.8004 35.035C56.1403 35.0409 62.001 29.2383 62.0129 21.9522V21.9507ZM49.8805 25.5744C49.8715 26.0971 50.0399 26.3444 50.5836 26.2922C50.7624 26.2759 50.9501 26.2922 51.1259 26.331C51.6756 26.4531 52.0465 26.7897 52.0302 27.3661C52.0153 27.9038 51.6607 28.2925 51.1304 28.3268C49.6093 28.4251 48.0823 28.434 46.5628 28.3223C46.0086 28.2821 45.6362 27.8784 45.6585 27.2991C45.6824 26.6869 46.107 26.3846 46.688 26.3012C47.4269 26.1939 47.7963 25.771 47.7963 25.0322C47.7963 22.9843 47.7859 20.9364 47.8023 18.8885C47.8068 18.3329 47.6891 18.1304 47.0991 18.3806C46.4928 18.6383 45.9595 18.4074 45.742 17.8697C45.5006 17.2725 45.7584 16.842 46.2708 16.562C46.9084 16.212 47.5609 15.8873 48.2224 15.582C49.1535 15.1516 49.8581 15.585 49.8775 16.632C49.9073 18.1334 49.8849 19.6361 49.8849 21.1375H49.8894C49.8894 22.6164 49.9043 24.0954 49.8805 25.5744ZM22.0536 63.3662C21.0853 63.3662 20.8961 63.6298 21.3341 64.4564C23.2231 68.0191 26.1638 69.988 30.2249 69.9999C34.3172 70.0119 37.2773 68.0384 39.1752 64.446C39.6042 63.6328 39.4314 63.3692 38.5197 63.3677C35.7875 63.3632 33.0539 63.3662 30.3217 63.3662C27.5657 63.3662 24.8112 63.3647 22.0551 63.3662H22.0536Z" fill="#CDBB6D"/>
</svg>
