<svg width="70" height="54" viewBox="0 0 70 54" fill="none" xmlns="http://www.w3.org/2000/svg">
<path d="M0 13.0215C0.318984 13.0145 0.636571 13.0033 0.955555 13.0033C22.5248 13.0033 44.0954 13.0033 65.6646 13.0033C65.8464 13.0033 66.0297 13.0173 66.2102 13.0019C66.7488 12.9571 66.9867 13.1515 66.9769 13.7362C66.9489 15.6469 66.9517 17.5575 66.9755 19.4682C66.9825 20.071 66.767 20.2193 66.1976 20.099C64.8405 19.8137 63.5981 19.2864 62.4705 18.4821C61.785 17.9925 61.1064 17.4946 60.4125 17.019C58.3321 15.5909 55.7117 15.5615 53.6075 16.9533C52.7723 17.5058 51.972 18.1072 51.1452 18.6709C49.5964 19.727 47.8616 20.1955 46.0051 20.2725C42.4445 20.4193 39.9849 22.9119 39.9374 26.4996C39.8954 29.616 39.8842 32.7337 39.943 35.8487C40.0087 39.3273 40.8104 42.6465 42.3703 45.7699C42.7719 46.5741 42.7537 46.6091 41.8331 46.6091C32.3685 46.6105 22.9025 46.6091 13.4379 46.6091C10.7979 46.6091 8.15928 46.6091 5.51927 46.6091C2.53928 46.6091 1.04929 45.5754 0.00140042 42.7864V13.0215H0ZM18.087 35.5018C20.8403 35.5018 23.5936 35.499 26.3456 35.5046C26.7359 35.5046 27.1178 35.4752 27.49 35.3549C28.3238 35.0836 28.8135 34.3926 28.8121 33.4946C28.8107 32.598 28.3168 31.9141 27.4774 31.6441C27.0815 31.5168 26.6757 31.5 26.2644 31.5C21.7133 31.5028 17.1636 31.5014 12.6125 31.5028C11.5884 31.5028 10.5642 31.4833 9.54154 31.5098C8.19425 31.5462 7.34083 32.419 7.40939 33.6443C7.47234 34.7605 8.35375 35.4934 9.69124 35.4976C12.4893 35.5088 15.2889 35.5004 18.087 35.5018ZM22.7738 26.6716C24.1169 26.6716 25.4586 26.6856 26.8017 26.6674C28.0524 26.6507 28.8107 25.9121 28.8135 24.7498C28.8163 23.586 27.9992 22.7678 26.7653 22.7608C24.1253 22.7468 21.4867 22.7468 18.8466 22.7608C17.6169 22.7678 16.797 23.5888 16.8012 24.7526C16.8054 25.9121 17.5651 26.6493 18.8159 26.666C20.1352 26.6842 21.4559 26.6702 22.7752 26.6702L22.7738 26.6716ZM9.99763 26.6674C10.2467 26.6674 10.4971 26.6786 10.7461 26.666C11.8178 26.6115 12.6125 25.8422 12.6558 24.8281C12.6992 23.807 11.9171 22.8811 10.8636 22.7804C10.3026 22.7272 9.72622 22.723 9.1652 22.7846C8.06834 22.9049 7.36601 23.7595 7.40799 24.8407C7.44716 25.8562 8.23762 26.6143 9.31769 26.6674C9.54434 26.6786 9.77099 26.6688 9.99763 26.6674ZM0 9.06166C0.317585 9.07285 0.63657 9.09243 0.954155 9.09243C22.5527 9.09383 44.1513 9.09243 65.7485 9.09243C65.9304 9.09243 66.1136 9.07984 66.2941 9.09243C66.7894 9.1302 66.9839 8.92039 66.9741 8.41684C66.9503 7.21114 66.9741 6.00544 66.9643 4.79973C66.9447 2.08201 64.8755 0.00489478 62.1515 0.00349605C43.0335 -0.00209886 23.9168 0.000700132 4.79875 0.000700132C4.41261 0.000700132 4.02927 0.0132877 3.64873 0.111199C1.72084 0.607747 0.600194 1.90577 0 3.7339C0 5.50889 0 7.28387 0 9.05886V9.06166ZM69.9722 32.0511C69.8939 33.8065 70.1653 35.9564 69.8183 38.0783C68.6361 45.3153 64.6404 50.3493 57.869 53.1705C57.2534 53.4265 56.6211 53.4181 56.0055 53.1594C49.2187 50.3087 45.2006 45.2621 44.08 37.9804C43.705 35.5438 43.9806 33.0736 43.9331 30.6188C43.9065 29.2313 43.9233 27.8424 43.9303 26.4548C43.9373 25.0827 44.7557 24.2099 46.1114 24.1861C49.0536 24.1329 51.6866 23.2112 54.0426 21.4614C54.4987 21.1229 54.9674 20.7984 55.4347 20.4739C56.5903 19.671 57.3178 19.6724 58.4916 20.4865C59.7997 21.3928 61.0477 22.3873 62.5223 23.0335C64.148 23.7455 65.8408 24.1329 67.6134 24.1763C69.1594 24.2141 69.968 25.0197 69.9722 26.5514C69.9764 28.2578 69.9722 29.9642 69.9722 32.0511ZM56.1146 41.3891C56.7036 41.4072 57.1737 41.1513 57.5584 40.7331C58.0369 40.2155 58.5028 39.6854 58.9687 39.1553C60.1551 37.8069 61.3513 36.4641 62.5195 35.1004C63.0945 34.4304 63.1658 33.6569 62.7601 32.8736C62.3572 32.0973 61.6772 31.8246 60.8252 31.8833C60.1789 31.9281 59.7382 32.2917 59.338 32.7491C58.3951 33.8275 57.4367 34.8934 56.5049 35.983C56.1874 36.3536 55.9551 36.355 55.6459 35.9774C55.2136 35.4501 54.7603 34.9367 54.2819 34.4514C53.4942 33.6513 52.3833 33.6009 51.5817 34.2933C50.7534 35.0081 50.6261 36.1732 51.3578 37.0418C52.4267 38.3119 53.5418 39.5427 54.6498 40.7806C55.0345 41.21 55.5368 41.4016 56.116 41.3877L56.1146 41.3891Z" fill="#CDBB6D"/>
</svg>
