<svg width="70" height="70" viewBox="0 0 70 70" fill="none" xmlns="http://www.w3.org/2000/svg">
<path d="M28.3303 49.232C27.3504 47.5278 26.4067 45.883 25.4581 44.2414C20.692 35.994 15.9622 27.7286 11.1434 19.5125C8.85255 15.607 11.0116 11.387 14.531 10.4353C17.1084 9.73885 19.7895 10.7317 21.2174 13.1043C22.996 16.0581 24.6824 19.068 26.4084 22.0531C27.3784 23.7325 28.3484 25.4119 29.3695 27.177C29.7071 26.5019 29.9937 25.9174 30.4186 25.4152C32.2796 23.2221 35.3362 22.6475 37.8806 24.0585C38.3714 24.3302 38.5657 24.3911 38.8062 23.7621C40.2505 19.9834 44.7498 18.7238 47.9925 21.1755C48.4207 21.4998 48.5739 21.513 48.8308 20.9911C49.8091 19.0054 51.4839 17.9302 53.6562 17.8644C55.7988 17.7985 57.5379 18.7485 58.6347 20.6305C61.6486 25.7989 64.7035 30.9442 67.5987 36.1768C72.5872 45.1914 69.5668 56.2889 60.7312 61.5742C57.2299 63.6685 53.7731 65.8699 50.0857 67.6185C44.1602 70.4274 38.2907 70.0175 32.6287 66.7854C26.0263 63.0182 19.4552 59.195 12.8726 55.3932C10.3018 53.908 9.76494 51.5338 11.4415 49.0887C14.1292 45.1717 19.0649 44.0702 23.1871 46.4625C24.6891 47.3335 26.1959 48.1963 27.7012 49.0591C27.8577 49.148 27.9944 49.2995 28.3254 49.2303L28.3303 49.232ZM1.35922 22.71C2.321 24.8851 3.67143 26.7884 5.49948 28.3279C6.27517 28.9816 7.23695 29.0655 8.05381 28.593C8.82785 28.1451 9.22147 27.312 9.10125 26.3784C9.00737 25.6474 8.50671 25.1847 8.01758 24.704C5.35621 22.0794 4.14738 18.9198 4.42406 15.1707C4.88189 8.95841 10.4632 3.86411 17.0804 4.47826C21.4447 4.8833 24.6265 7.06492 26.667 10.9359C27.1857 11.9205 27.4525 12.9891 27.7556 14.0494C28.108 15.281 29.2542 15.9231 30.4285 15.607C31.5681 15.2991 32.2203 14.1927 31.9782 12.9759C30.2852 4.4618 21.8943 -1.28287 13.3865 0.246739C5.56373 1.65286 0.00216536 8.29322 0.00545914 16.2228C-0.0587695 18.4933 0.446841 20.6486 1.35922 22.7117V22.71Z" fill="#CDBB6D"/>
</svg>
